<?xml version="1.0" standalone="no"?>
<!DOCTYPE svg PUBLIC "-//W3C//DTD SVG 1.1//EN" "http://www.w3.org/Graphics/SVG/1.1/DTD/svg11.dtd" >
<svg xmlns="http://www.w3.org/2000/svg">
<metadata></metadata>
<defs>
<font id="cartogothic_stdbold" horiz-adv-x="536" >
<font-face units-per-em="1000" ascent="758" descent="-242" />
<missing-glyph horiz-adv-x="250" />
<glyph unicode="&#xfb01;" horiz-adv-x="558" d="M-33 400v95h99q2 73 7.5 103.5t21.5 56.5q43 68 150 68q30 0 67 -9l-8 -103q-19 5 -34 5q-51 0 -68 -43q-8 -18 -8 -78h112v-95h-112v-400h-128v400h-99zM363 585v121h132v-121h-132zM365 0v495h128v-495h-128z" />
<glyph unicode="&#xfb02;" horiz-adv-x="562" d="M-33 400v95h99q2 73 7.5 104t21.5 56q42 68 151 68q31 0 59 -9l-8 -103q-21 5 -32 5q-26 0 -45 -16t-23 -42q-3 -18 -3 -63h105v-95h-105v-400h-128v400h-99zM364 0v720h128v-720h-128z" />
<glyph unicode="&#xfb03;" horiz-adv-x="857" d="M-33 400v95h99q2 73 7.5 103.5t21.5 56.5q43 68 150 68q30 0 67 -9l-8 -103q-19 5 -34 5q-51 0 -68 -43q-8 -18 -8 -78h171q2 73 7.5 103.5t21.5 56.5q43 68 150 68q30 0 67 -9l-8 -103q-19 5 -34 5q-51 0 -68 -43q-8 -18 -8 -78h112v-95h-112v-400h-128v400h-171v-400 h-128v400h-99zM662 585v121h132v-121h-132zM664 0v495h128v-495h-128z" />
<glyph unicode="&#xfb04;" horiz-adv-x="861" d="M-33 400v95h99q2 73 7.5 103.5t21.5 56.5q43 68 150 68q30 0 67 -9l-8 -103q-19 5 -34 5q-51 0 -68 -43q-8 -18 -8 -78h171q2 73 7.5 104t21.5 56q42 68 151 68q31 0 59 -9l-8 -103q-21 5 -32 5q-26 0 -45 -16t-23 -42q-3 -18 -3 -63h105v-95h-105v-400h-128v400h-171 v-400h-128v400h-99zM664 0v720h128v-720h-128z" />
<glyph horiz-adv-x="1000" />
<glyph horiz-adv-x="1000" />
<glyph unicode="&#xd;" horiz-adv-x="1000" />
<glyph unicode=" "  horiz-adv-x="250" />
<glyph unicode="&#x09;" horiz-adv-x="250" />
<glyph unicode="&#xa0;" horiz-adv-x="250" />
<glyph unicode="!" horiz-adv-x="362" d="M130 667h150l-21 -475h-107zM140 0v123h132v-123h-132z" />
<glyph unicode="&#x22;" horiz-adv-x="407" d="M42 720h141l-24 -268h-94zM225 720h140l-23 -268h-94z" />
<glyph unicode="#" d="M5 184l16 90h90l23 133h-90l16 90h90l30 170h103l-30 -170h98l30 170h103l-30 -170h90l-16 -90h-90l-23 -133h90l-16 -90h-90l-32 -184h-103l32 184h-98l-33 -184h-102l32 184h-90zM214 274h98l24 133h-99z" />
<glyph unicode="$" d="M38 484q0 80 54.5 128.5t152.5 56.5v86h52v-83q89 0 158 -22l-11 -112q-64 29 -147 31v-168q98 -33 133 -60q70 -53 70 -150q0 -99 -81 -155q-48 -32 -127 -41v-84h-53v81q-70 1 -105.5 6t-84.5 23l13 121q88 -43 160 -43q8 0 17 1v185q-91 32 -124 54q-77 50 -77 145z M167 493q0 -27 18 -44.5t60 -31.5v152q-78 -17 -78 -76zM292 102q78 19 78 82q0 31 -17 50t-61 36v-168z" />
<glyph unicode="%" horiz-adv-x="724" d="M44 497q0 175 126 175t126 -178q0 -80 -32.5 -123t-93.5 -43q-126 0 -126 169zM121 497q0 -114 49 -114t49 112q0 122 -50 122q-48 0 -48 -120zM142 -31l379 729h65l-378 -729h-66zM431 164q0 175 125 175q126 0 126 -177q0 -81 -32 -124t-93 -43q-62 0 -94 43.5 t-32 125.5zM508 164q0 -114 49 -114q48 0 48 112q0 122 -49 122q-48 0 -48 -120z" />
<glyph unicode="&#x26;" horiz-adv-x="696" d="M59 190q0 127 139 178q-89 80 -89 157q0 71 56.5 113t150.5 42q85 0 136.5 -42t51.5 -110q0 -73 -59 -126q-26 -22 -73 -49l127 -137q38 54 41 146h115q-4 -134 -84 -227l118 -135h-161l-47 55q-48 -37 -90 -52.5t-96 -15.5q-104 0 -170 57t-66 146zM191 189 q0 -44 33.5 -75t80.5 -31q56 0 114 46l-151 166q-77 -46 -77 -106zM234 521q0 -21 13 -41t51 -57q6 3 11.5 6t8.5 5q69 41 69 90q0 28 -21.5 45.5t-54.5 17.5t-55 -19t-22 -47z" />
<glyph unicode="'" horiz-adv-x="225" d="M42 720h141l-24 -268h-94z" />
<glyph unicode="(" horiz-adv-x="355" d="M41 258q0 120 33.5 222t117.5 240h121q-141 -244 -141 -460q0 -143 58 -292q25 -65 83 -171h-121q-83 134 -117 238t-34 223z" />
<glyph unicode=")" horiz-adv-x="356" d="M42 -203q61 115 83 171q58 149 58 292q0 216 -141 460h121q85 -140 118 -241t33 -222q0 -118 -34 -221.5t-117 -238.5h-121z" />
<glyph unicode="*" d="M73 543l31 95l129 -58l-13 140h98l-13 -140l128 54l30 -91l-136 -32l92 -102l-81 -59l-70 120l-73 -120l-81 59l95 102z" />
<glyph unicode="+" d="M35 303v87h187v183h92v-183h188v-87h-188v-183h-92v183h-187z" />
<glyph unicode="," horiz-adv-x="267" d="M21 -108l60 240h136l-84 -240h-112z" />
<glyph unicode="-" horiz-adv-x="244" d="M0 197v107h244v-107h-244z" />
<glyph unicode="." horiz-adv-x="267" d="M65 0v131h136v-131h-136z" />
<glyph unicode="/" horiz-adv-x="436" d="M-35 -203l325 923h106l-324 -923h-107z" />
<glyph unicode="0" d="M35 326q0 160 47 244q28 51 76.5 79.5t108.5 28.5q61 0 109.5 -28t76.5 -80q47 -88 47 -247q0 -161 -57 -246q-29 -41 -75 -64.5t-101 -23.5q-54 0 -100 23.5t-75 64.5q-57 84 -57 249zM170 327q0 -238 98 -238q97 0 97 235q0 131 -24 192.5t-74 61.5q-97 0 -97 -251z " />
<glyph unicode="1" d="M61 512l198 155h117v-667h-133v520l-113 -96z" />
<glyph unicode="2" d="M39 0v112q108 98 172 169q61 67 87 111.5t26 81.5q0 43 -29 69t-76 26q-74 0 -156 -56l-11 118q105 47 204 47q92 0 146 -45q65 -54 65 -144q0 -52 -23.5 -101.5t-81.5 -122.5q-63 -79 -152 -160l276 2v-107h-447z" />
<glyph unicode="3" d="M42 13l8 116q74 -35 150 -35q65 0 102 26.5t37 72.5q0 98 -163 98q-27 0 -49 -1v109q34 -2 41 -2q81 0 123 23q45 25 45 73q0 37 -31.5 58.5t-86.5 21.5q-82 0 -150 -35l-8 110q97 30 178 30q112 0 174 -45t62 -127q0 -61 -33.5 -103t-90.5 -53q44 -12 64 -26 q30 -20 48 -59.5t18 -83.5q0 -89 -71.5 -140.5t-196.5 -51.5q-88 0 -170 24z" />
<glyph unicode="4" d="M15 135v114l248 418h171v-430h86v-102h-86v-135h-133v135h-286zM138 237h166l2 278q0 27 6 46q-12 -30 -17 -39z" />
<glyph unicode="5" d="M68 10l3 122q69 -34 142 -34q62 0 99.5 30.5t37.5 80.5q0 54 -41 86t-111 32q-55 0 -120 -20l6 360h387v-104h-260l-3 -136q30 3 52 3q105 0 169 -59t64 -156q0 -107 -73 -168q-68 -58 -200 -58q-52 0 -133 17z" />
<glyph unicode="6" d="M43 306q0 372 275 372q64 0 146 -23l-17 -108q-57 27 -110 27q-77 0 -116.5 -49t-46.5 -153q45 66 131 66q88 0 141 -62t53 -164q0 -103 -59.5 -163t-161.5 -60q-120 0 -177.5 77.5t-57.5 239.5zM182 218q0 -58 25.5 -93.5t67.5 -35.5q40 0 64.5 33t24.5 87q0 58 -25 92 t-68 34q-41 0 -65 -31.5t-24 -85.5z" />
<glyph unicode="7" d="M51 564v103h434v-103l-234 -564h-148l250 564h-302z" />
<glyph unicode="8" d="M35 182q0 65 32.5 108t93.5 59q-53 15 -83.5 55.5t-30.5 96.5q0 81 59.5 129t160.5 48q98 0 156.5 -43.5t58.5 -117.5q0 -118 -113 -157q63 -17 97.5 -62t34.5 -111q0 -92 -66 -149q-59 -49 -168 -49q-106 0 -169 52.5t-63 140.5zM170 184q0 -43 29 -70.5t73 -27.5 q43 0 68.5 25.5t25.5 67.5q0 43 -24.5 68.5t-86.5 46.5q-12 -6 -19 -9q-66 -35 -66 -101zM177 504q0 -42 34 -68q24 -17 69 -36q2 1 5.5 3t6.5 4q62 36 62 94q0 36 -24 59t-62 23q-39 0 -65 -22.5t-26 -56.5z" />
<glyph unicode="9" d="M35 454q0 107 59.5 165.5t167.5 58.5q116 0 173 -77t57 -234q0 -184 -62 -278q-31 -47 -86 -73.5t-123 -26.5q-84 0 -150 22l16 109q61 -27 109 -27q94 0 135 78q22 43 30 129q-38 -69 -131 -69q-88 0 -141.5 61.5t-53.5 161.5zM170 455q0 -54 26 -87.5t68 -33.5 q40 0 64 31t24 81q0 60 -25 96t-67 36q-40 0 -65 -34t-25 -89z" />
<glyph unicode=":" horiz-adv-x="267" d="M65 0v131h136v-131h-136zM65 364v131h136v-131h-136z" />
<glyph unicode=";" horiz-adv-x="267" d="M21 -108l60 240h137l-85 -240h-112zM83 364v131h136v-131h-136z" />
<glyph unicode="&#x3c;" horiz-adv-x="500" d="M33 287v106l433 220v-125l-299 -148l299 -148v-125z" />
<glyph unicode="=" d="M35 226v87h467v-87h-467zM35 380v87h467v-87h-467z" />
<glyph unicode="&#x3e;" horiz-adv-x="500" d="M33 66v126l299 148l-299 148v125l433 -220v-107z" />
<glyph unicode="?" horiz-adv-x="508" d="M75 646q99 32 193 32q88 0 143 -37q32 -23 51 -58.5t19 -75.5q0 -43 -18 -76t-76 -97q-43 -46 -54.5 -71.5t-13.5 -72.5h-115q1 69 14.5 102.5t60.5 84.5q61 68 61 115q0 37 -29.5 59t-79.5 22q-61 0 -145 -37zM195 0v124h132v-124h-132z" />
<glyph unicode="@" horiz-adv-x="769" d="M49 327q0 149 102.5 252t251.5 103q137 0 227.5 -84.5t90.5 -212.5q0 -92 -50 -162.5t-115 -70.5q-29 0 -50 15.5t-28 40.5q-20 -30 -53.5 -47t-71.5 -17q-61 0 -101.5 45t-40.5 113q0 81 52.5 141.5t123.5 60.5q69 0 98 -50l8 39l87 -1l-37 -192q-7 -37 -7 -44 q0 -32 23 -32q31 0 58 51t27 110q0 96 -66 157t-170 61q-116 0 -195 -80t-79 -197q0 -113 75 -191q70 -71 199 -71q95 0 184 31l20 -79q-91 -31 -206 -31q-155 0 -251 90q-50 47 -78 114t-28 138zM311 305q0 -32 18.5 -52t47.5 -20q34 0 60 32t26 73q0 32 -17.5 52t-46.5 20 q-35 0 -61.5 -31.5t-26.5 -73.5z" />
<glyph unicode="A" horiz-adv-x="696" d="M9 0l260 667h150l267 -667h-147l-58 152h-276l-57 -152h-139zM246 261h194l-86 236q-7 19 -13 44l-5 -20q-4 -17 -10 -35z" />
<glyph unicode="B" horiz-adv-x="602" d="M81 0v667h214q115 0 167 -37q67 -47 67 -133q0 -123 -132 -148q74 -10 115 -53t41 -112q0 -102 -86 -151q-34 -20 -70 -26.5t-113 -6.5h-203zM216 102h66q66 0 101 25t35 72q0 48 -33 73.5t-95 25.5h-74v-196zM216 397h64q114 0 114 82q0 85 -109 85h-69v-167z" />
<glyph unicode="C" horiz-adv-x="589" d="M49 335q0 156 94 246q97 91 256 91q77 0 165 -29l-11 -114q-66 36 -141 36q-101 0 -160.5 -60.5t-59.5 -164.5q0 -103 62.5 -168t161.5 -65q71 0 146 28l5 -118q-83 -22 -156 -22q-171 0 -266.5 89.5t-95.5 250.5z" />
<glyph unicode="D" horiz-adv-x="697" d="M80 0v667h152q111 0 179.5 -15t117.5 -49q120 -84 120 -267q0 -190 -120 -275q-87 -61 -256 -61h-193zM215 102h27q69 0 108.5 10t71.5 35q84 66 84 186q0 65 -26 117t-74 80q-31 18 -70.5 25t-120.5 8v-461z" />
<glyph unicode="E" horiz-adv-x="537" d="M80 0v667h395v-109h-260v-162h238v-109h-238v-178h264v-109h-399z" />
<glyph unicode="F" horiz-adv-x="491" d="M80 0v667h370v-109h-235v-159h226v-109h-225v-290h-136z" />
<glyph unicode="G" horiz-adv-x="698" d="M49 337q0 155 101.5 245t276.5 90q95 0 184 -27l-9 -118q-83 37 -177 37q-110 0 -171.5 -60.5t-61.5 -167.5q0 -106 61.5 -170t164.5 -64q40 0 83 14v162h-142v109h270v-357q-99 -35 -224 -35q-163 0 -252 78q-49 43 -76.5 113t-27.5 151z" />
<glyph unicode="H" horiz-adv-x="695" d="M80 0v667h135v-271h265v271h135v-667h-135v287h-265v-287h-135z" />
<glyph unicode="I" horiz-adv-x="308" d="M87 0v667h135v-667h-135z" />
<glyph unicode="J" horiz-adv-x="378" d="M13 8l4 114q30 -10 57 -10q56 0 77 39q12 20 12 74v442h135v-455q0 -108 -39 -156q-49 -62 -151 -62q-43 0 -95 14z" />
<glyph unicode="K" horiz-adv-x="643" d="M81 0v667h135v-237q0 -26 -3 -53q23 33 35 46l209 244h162l-273 -308l288 -359h-174l-215 275q-21 27 -32 44q3 -23 3 -59v-260h-135z" />
<glyph unicode="L" horiz-adv-x="492" d="M80 0v667h135v-558h260v-109h-395z" />
<glyph unicode="M" horiz-adv-x="916" d="M80 0v667h213l121 -350q27 -76 43 -164q23 97 35 135l128 379h216v-667h-135v394q0 51 9 180h-4q-10 -40 -20 -69l-170 -505h-124l-144 418q-24 70 -46 156h-4q10 -98 10 -174v-400h-128z" />
<glyph unicode="N" horiz-adv-x="709" d="M80 0v667h159l223 -404q20 -36 40 -91q0 -2 4 -11.5t6 -15.5q-1 19 -4 36q-7 59 -7 128v358h128v-667h-163l-218 403q-30 56 -55 118q15 -108 15 -172v-349h-128z" />
<glyph unicode="O" horiz-adv-x="749" d="M49 332q0 159 82 252q41 46 105.5 72t137.5 26q152 0 239.5 -94t87.5 -258q0 -70 -21 -134t-59 -108q-86 -103 -247 -103q-150 0 -237.5 93.5t-87.5 253.5zM192 333q0 -109 50.5 -177t132.5 -68q88 0 137 75q46 71 46 167q0 111 -51 180t-133 69q-81 0 -131.5 -68.5 t-50.5 -177.5z" />
<glyph unicode="P" horiz-adv-x="549" d="M80 0v667h183q124 0 185 -43q81 -58 81 -163t-80 -166q-59 -44 -173 -44q-25 0 -61 2v-253h-135zM215 357q12 -1 27 -1q63 0 88 12q56 25 56 92q0 80 -74 99q-18 5 -97 6v-208z" />
<glyph unicode="Q" horiz-adv-x="749" d="M49 332q0 166 88 259q88 91 239 91q149 0 237 -94t88 -254q0 -127 -60 -221q-36 -56 -113 -96l159 -146h-165l-115 116q-19 -1 -44 -1q-143 0 -228.5 94t-85.5 252zM192 333q0 -109 50.5 -176.5t132.5 -67.5q89 0 136 71q47 73 47 173q0 110 -50.5 178t-132.5 68 q-81 0 -132 -68.5t-51 -177.5z" />
<glyph unicode="R" horiz-adv-x="596" d="M80 0v667h219q122 0 175 -39q65 -46 65 -137q0 -65 -35.5 -106.5t-99.5 -50.5q28 -11 44.5 -31t37.5 -71l96 -232h-150l-73 189q-20 53 -42 70.5t-69 17.5h-32v-277h-136zM215 380h60q121 0 121 96q0 87 -110 87h-71v-183z" />
<glyph unicode="S" horiz-adv-x="540" d="M57 486q0 93 62 144.5t174 51.5q84 0 158 -26l-11 -110q-76 33 -139 33q-49 0 -77.5 -21.5t-28.5 -58.5q0 -43 41 -66q18 -10 91 -39q88 -35 126.5 -81.5t38.5 -118.5q0 -97 -67 -153t-183 -56q-86 0 -172 31l12 120q78 -44 150 -44q54 0 85.5 25t31.5 68t-32 64 q-20 14 -77 37q-85 33 -124 66q-59 49 -59 134z" />
<glyph unicode="T" d="M9 558v109h517v-109h-192v-558h-135v558h-190z" />
<glyph unicode="U" horiz-adv-x="705" d="M80 264v403h135v-391q0 -55 7 -84t26 -53q38 -47 108 -47q82 0 118 67q12 23 16 47t4 75v386h131v-405q0 -142 -67.5 -209.5t-209.5 -67.5t-211 79q-57 64 -57 200z" />
<glyph unicode="V" horiz-adv-x="643" d="M9 667h144l142 -429q20 -62 32 -107q21 78 34 117l138 419h134l-227 -667h-165z" />
<glyph unicode="W" horiz-adv-x="962" d="M9 667h139l64 -255q55 -220 63 -291h4q16 104 45 244l68 302h180l66 -273q42 -176 55 -273h4q19 126 67 318l57 228h132l-176 -667h-171l-60 251q0 1 -25 114l-29 133q-4 18 -9 59h-4q-13 -86 -48 -246l-70 -311h-173z" />
<glyph unicode="X" horiz-adv-x="643" d="M9 0l220 350l-200 317h155l142 -236l143 236h143l-202 -317l223 -350h-159l-156 262l-158 -262h-151z" />
<glyph unicode="Y" horiz-adv-x="638" d="M9 667h157l143 -248q9 -17 15 -32q3 9 15 30l146 250h144l-241 -397v-270h-135v267z" />
<glyph unicode="Z" horiz-adv-x="534" d="M33 0v115l276 394q20 28 26.5 36t16.5 15q-10 -2 -46 -2h-264v109h446v-125l-279 -400q-16 -22 -31 -36q21 3 47 3h274v-109h-466z" />
<glyph unicode="[" horiz-adv-x="366" d="M81 -203v923h213v-89h-96v-744h96v-90h-213z" />
<glyph unicode="\" horiz-adv-x="436" d="M40 720h106l325 -923h-107z" />
<glyph unicode="]" horiz-adv-x="366" d="M72 -113h96v744h-96v89h213v-923h-213v90z" />
<glyph unicode="^" horiz-adv-x="500" d="M6 336l161 335h166l162 -335h-133l-112 234l-112 -234h-132z" />
<glyph unicode="_" horiz-adv-x="500" d="M0 -47h500v-114h-500v114z" />
<glyph unicode="`" horiz-adv-x="500" d="M97 715h132l80 -136h-76z" />
<glyph unicode="a" horiz-adv-x="538" d="M37 147q0 160 248 160q25 0 72 -4v5q0 105 -110 105q-83 0 -153 -54l-4 110q81 35 171 35q130 0 182 -72q18 -26 24.5 -63t6.5 -117v-72q0 -78 5 -180h-114l-2 73q-49 -81 -158 -81q-76 0 -122 42t-46 113zM164 143q0 -29 21.5 -46.5t55.5 -17.5t62 18.5t43 50.5 q13 29 13 77q-24 2 -35 2q-160 0 -160 -84z" />
<glyph unicode="b" horiz-adv-x="585" d="M64 0v720h128v-220q0 -45 -5 -92q50 96 160 96q94 0 147 -66.5t53 -183.5q0 -124 -54 -193t-151 -69q-109 0 -155 86l-3 -78h-120zM193 244q0 -68 31 -109.5t81 -41.5q48 0 78.5 42.5t30.5 110.5q0 71 -28.5 111t-77.5 40q-52 0 -83.5 -42.5t-31.5 -110.5z" />
<glyph unicode="c" horiz-adv-x="431" d="M37 250q0 112 64 176q73 73 188 73q44 0 107 -16l-10 -103q-43 16 -76 16q-63 0 -101.5 -40.5t-38.5 -107.5q0 -65 39 -105t103 -40q43 0 88 20l7 -108q-65 -19 -116 -19q-117 0 -185.5 68t-68.5 186z" />
<glyph unicode="d" horiz-adv-x="587" d="M37 256q0 112 56.5 180t148.5 68q103 0 154 -91q-5 45 -5 87v220h128v-576q0 -74 4 -144h-121l-2 84q-45 -92 -156 -92q-98 0 -152.5 70t-54.5 194zM170 250q0 -71 30.5 -114t80.5 -43t81 41.5t31 108.5q0 70 -32 112t-85 42q-49 0 -77.5 -39.5t-28.5 -107.5z" />
<glyph unicode="e" horiz-adv-x="535" d="M36 249q0 119 65 189t174 70q104 0 163.5 -65.5t59.5 -179.5q0 -25 -3 -56h-333q5 -58 44 -91.5t102 -33.5q70 0 155 51l2 -111q-78 -35 -172 -35q-122 0 -189.5 69t-67.5 193zM160 296h216q-1 58 -28.5 90t-75.5 32q-46 0 -76 -32.5t-36 -89.5z" />
<glyph unicode="f" horiz-adv-x="324" d="M-33 400v95h99q2 73 7.5 103.5t21.5 56.5q43 68 150 68q30 0 67 -9l-8 -103q-19 5 -34 5q-51 0 -68 -43q-8 -18 -8 -78h112v-95h-112v-400h-128v400h-99z" />
<glyph unicode="g" horiz-adv-x="579" d="M37 253q0 118 55 184.5t152 66.5q107 0 152 -90l2 80h122v-434q0 -76 -13 -121t-45 -79q-68 -71 -199 -71q-84 0 -174 35l10 111q81 -42 150 -42q99 0 133 72q9 18 12 41t6 93q-54 -99 -167 -99q-90 0 -143 68.5t-53 184.5zM170 255q0 -68 30 -109.5t79 -41.5t81.5 42 t32.5 104q0 65 -32.5 106.5t-82.5 41.5q-49 0 -78.5 -39t-29.5 -104z" />
<glyph unicode="h" horiz-adv-x="581" d="M65 0v720h128v-295q55 79 156 79t142 -67q29 -47 29 -153v-284h-128v240q0 86 -13 111q-25 46 -75 46q-33 0 -59.5 -19.5t-39.5 -53.5q-12 -34 -12 -122v-202h-128z" />
<glyph unicode="i" horiz-adv-x="258" d="M63 585v121h132v-121h-132zM65 0v495h128v-495h-128z" />
<glyph unicode="j" horiz-adv-x="264" d="M-13 -201l5 94q7 -1 18 -1q36 0 53 31q9 15 9 65v507h128v-525q0 -176 -151 -176q-28 0 -62 5zM70 585v121h132v-121h-132z" />
<glyph unicode="k" horiz-adv-x="527" d="M65 0v720h128v-335q0 -45 -3 -97q29 43 42 59l119 148h149l-184 -222l208 -273h-162l-128 181q-26 37 -44 71q3 -26 3 -65v-187h-128z" />
<glyph unicode="l" horiz-adv-x="257" d="M65 0v720h128v-720h-128z" />
<glyph unicode="m" horiz-adv-x="857" d="M65 495h123l2 -75q54 83 155 83q96 0 138 -88q51 88 156 88q96 0 135 -72q23 -45 23 -144v-287h-128v240q0 79 -9 106q-18 50 -68 50q-54 0 -80 -58q-15 -34 -15 -109v-229h-128v253q0 79 -11 102q-20 41 -64 41q-48 0 -78 -50q-19 -32 -19 -98v-248h-128v374 q0 65 -4 121z" />
<glyph unicode="n" horiz-adv-x="585" d="M65 495h120l4 -79q25 35 44 50q48 37 124 37q93 0 137 -64q31 -47 31 -160v-279h-128v249q0 78 -20.5 112.5t-67.5 34.5q-64 0 -94 -60q-17 -33 -17 -101v-235h-128v315q0 87 -5 180z" />
<glyph unicode="o" horiz-adv-x="587" d="M37 249q0 116 71 187.5t186 71.5q116 0 186.5 -72.5t70.5 -193.5q0 -114 -71.5 -184.5t-186.5 -70.5t-185.5 72t-70.5 190zM170 249q0 -75 34 -121t90 -46q55 0 89.5 45.5t34.5 116.5q0 76 -34 122.5t-90 46.5q-55 0 -89.5 -46t-34.5 -118z" />
<glyph unicode="p" horiz-adv-x="589" d="M65 495h123l2 -78q59 86 159 86q94 0 149 -67.5t55 -183.5q0 -121 -55 -190.5t-151 -69.5q-105 0 -150 78q1 -31 1 -76v-197h-128v554q0 54 -5 144zM198 243q0 -70 30 -110t82 -40q49 0 79.5 42t30.5 109q0 72 -28 112t-78 40q-54 0 -85 -41t-31 -112z" />
<glyph unicode="q" horiz-adv-x="584" d="M37 255q0 113 55.5 180.5t148.5 67.5q110 0 155 -87l3 79h121v-698h-128v196q0 55 4 89q-41 -90 -154 -90q-95 0 -150 70.5t-55 192.5zM170 247q0 -73 28.5 -113.5t79.5 -40.5q52 0 83.5 40.5t31.5 107.5q0 69 -32 112t-84 43q-50 0 -78.5 -40t-28.5 -109z" />
<glyph unicode="r" horiz-adv-x="375" d="M65 495h117l2 -126q35 130 139 130q20 0 38 -6v-119q-27 7 -44 7q-65 0 -98 -55q-22 -36 -22 -122v-204h-128v346q0 99 -4 149z" />
<glyph unicode="s" horiz-adv-x="430" d="M41 350q0 70 54.5 111.5t147.5 41.5q58 0 129 -18l-9 -97q-55 20 -109 20q-38 0 -62 -14.5t-24 -37.5q0 -18 17 -29t74 -30q62 -21 82 -36q51 -37 51 -110q0 -75 -54 -117.5t-150 -42.5q-60 0 -145 22l6 108q65 -35 124 -35q40 0 65 15.5t25 41.5q0 22 -25 37 q-15 9 -71 28q-67 23 -96.5 56t-29.5 86z" />
<glyph unicode="t" horiz-adv-x="369" d="M1 400v95h95v98l127 42v-140h114v-95h-114v-184q0 -65 12 -85q18 -32 62 -32q14 0 45 7l4 -100q-46 -10 -85 -10q-88 0 -127.5 46t-39.5 148v210h-93z" />
<glyph unicode="u" horiz-adv-x="581" d="M61 216v279h128v-238q0 -80 14 -112q20 -46 74 -46q105 0 105 164v232h128v-302q0 -91 6 -193h-120l-4 76q-53 -84 -163 -84q-97 0 -139 70q-29 51 -29 154z" />
<glyph unicode="v" horiz-adv-x="531" d="M9 495h140l83 -238q33 -94 40 -147q9 49 31 114l89 271h129l-184 -495h-143z" />
<glyph unicode="w" horiz-adv-x="854" d="M9 495h135l58 -178q42 -130 54 -218q8 73 44 196l59 200h148l70 -223q33 -105 41 -170q7 62 38 172l64 221h124l-153 -495h-149l-62 192q-40 122 -49 201q-9 -58 -23 -108q-13 -46 -22 -82l-62 -203h-147z" />
<glyph unicode="x" horiz-adv-x="537" d="M9 0l172 256l-156 239h151l82 -133q17 -28 18 -31q6 14 21 38l76 126h135l-150 -239l169 -256h-154l-90 150l-9 14q-3 6 -12 21q-1 -3 -4 -8t-8.5 -14t-9.5 -16l-90 -147h-141z" />
<glyph unicode="y" horiz-adv-x="534" d="M9 495h142l102 -302q17 -54 21 -66q21 72 24 82l96 286h130l-197 -529q-36 -94 -72 -129q-49 -46 -131 -46q-35 0 -71 10l-11 3l9 97q29 -11 52 -11q38 0 60 18.5t41 66.5z" />
<glyph unicode="z" horiz-adv-x="482" d="M33 0v98l206 248q21 25 56 57q-11 -1 -23 -1l-41 -1h-186v94h392v-99l-208 -250q-23 -28 -53 -54q47 6 116 6h154v-98h-413z" />
<glyph unicode="{" horiz-adv-x="366" d="M26 214v89q29 8 42 29t13 61v183q0 95 58 125q23 13 46.5 15.5t107.5 3.5v-88h-19q-45 0 -59 -12q-11 -9 -14 -24t-3 -59v-153q0 -51 -12.5 -76t-48.5 -50q35 -22 48 -49t13 -77v-152q0 -66 14.5 -80.5t80.5 -13.5v-89q-83 1 -106.5 4t-47.5 15q-58 31 -58 125v182 q0 44 -12.5 64.5t-42.5 26.5z" />
<glyph unicode="|" horiz-adv-x="500" d="M187 -167v834h127v-834h-127z" />
<glyph unicode="}" horiz-adv-x="366" d="M73 -114q8 -1 19 -1q46 0 60 12q11 9 14 24t3 60v152q0 51 12.5 76.5t48.5 49.5q-35 22 -48 49t-13 77v152q0 66 -14.5 80.5t-81.5 14.5v88q86 -1 109 -3.5t46 -15.5q58 -31 58 -124v-183q0 -44 12 -64t42 -27v-89q-54 -13 -54 -90v-183q0 -93 -58 -125q-24 -12 -48 -15 t-107 -4v89z" />
<glyph unicode="~" horiz-adv-x="667" d="M90 607q2 5 5 10.5t3 6.5q18 42 30.5 61t32.5 34q34 26 80 26q36 0 104 -26q63 -24 88 -24q23 0 38.5 11t32.5 41l72 -42q-37 -78 -72 -104q-40 -28 -86 -28q-24 0 -101 27q-64 23 -83 23q-25 0 -40 -12.5t-34 -49.5z" />
<glyph unicode="&#xa1;" horiz-adv-x="362" d="M80 -171l21 475h107l22 -475h-150zM88 372v123h132v-123h-132z" />
<glyph unicode="&#xa2;" d="M75 335q0 104 55.5 167.5t159.5 79.5v83h50v-80q46 -3 95 -16l-10 -104q-43 17 -75 17h-10v-296h5q47 0 94 22l6 -108q-56 -14 -105 -17v-83h-50v83q-105 16 -160 80t-55 172zM208 333q0 -96 82 -136v274q-82 -41 -82 -138z" />
<glyph unicode="&#xa3;" d="M50 0v101h85v215h-74v71h74q0 94 12 142q17 72 78 110.5t156 38.5q51 0 114 -16l-6 -109q-44 16 -89 16q-105 0 -125 -88q-7 -33 -7 -94h149v-71h-149v-215h223v-101h-441z" />
<glyph unicode="&#xa4;" d="M17 496l55 56l84 -83q54 35 113 35q58 0 110 -34l82 81l55 -55l-81 -82q37 -57 37 -112q0 -57 -36 -110l83 -82l-55 -56l-82 83q-55 -37 -115 -37q-55 0 -112 36l-82 -81l-55 54l82 83q-36 51 -36 111q0 59 37 110zM157 302q0 -46 32.5 -78.5t78.5 -32.5t78.5 32.5 t32.5 78.5t-32.5 78.5t-77.5 32.5q-47 0 -79.5 -32.5t-32.5 -78.5z" />
<glyph unicode="&#xa5;" d="M-9 667h157l110 -249l5 -10q3 -6 9 -21q3 9 8 19q6 9 6 11l114 250h146l-127 -240h109v-71h-148l-32 -63h180v-71h-193v-222h-133v222h-187v71h173l-32 63h-141v71h102z" />
<glyph unicode="&#xa6;" horiz-adv-x="500" d="M187 153h127v-320h-127v320zM187 321v346h127v-346h-127z" />
<glyph unicode="&#xa7;" d="M43 -178l9 116q88 -45 186 -45q52 0 82.5 21t30.5 57q0 43 -46 70q-24 14 -122 56q-140 60 -140 173q0 44 18.5 76.5t64.5 66.5q-43 35 -58.5 63t-15.5 68q0 85 63.5 137t166.5 52q74 0 173 -27l-12 -108q-90 31 -158 31q-52 0 -81 -21t-29 -58q0 -35 36 -62 q19 -14 137 -63q144 -60 144 -168q0 -62 -41 -108q-14 -17 -49 -37q74 -48 74 -131q0 -90 -73 -149q-60 -48 -158 -48q-88 0 -202 38zM142 296q0 -30 16.5 -51.5t56.5 -40.5q26 -14 129 -57q46 42 46 87q0 33 -25 56.5t-88 50.5q-12 5 -91 40q-44 -44 -44 -85z" />
<glyph unicode="&#xa8;" horiz-adv-x="500" d="M102 591v112h109v-112h-109zM291 591v112h108v-112h-108z" />
<glyph unicode="&#xa9;" horiz-adv-x="789" d="M49 333q0 146 102 247.5t250 101.5q139 0 239.5 -103t100.5 -245q0 -145 -101 -247t-244 -102t-245 102.5t-102 245.5zM117 333q0 -118 82 -202.5t197 -84.5q114 0 195.5 84.5t81.5 202.5t-80.5 203t-192.5 85q-119 0 -201 -83.5t-82 -204.5zM203 339q0 89 58 141t157 52 q45 0 104 -18l-8 -74q-42 23 -89 23q-59 0 -93 -33t-34 -89t36.5 -90.5t94.5 -34.5q41 0 91 17l3 -76q-53 -13 -98 -13q-105 0 -163.5 51.5t-58.5 143.5z" />
<glyph unicode="&#xaa;" horiz-adv-x="359" d="M35 466q0 99 161 99q18 0 41 -2q-1 56 -64 56q-53 0 -102 -37l-2 78q53 22 112 22q84 0 118 -45q21 -29 21 -109v-43q0 -57 3 -110h-81l-1 34q-39 -39 -96 -39q-50 0 -80 26.5t-30 69.5zM38 276v57h285v-57h-285zM124 464q0 -15 12 -24t32 -9q32 0 51 21t19 56h-18 q-96 0 -96 -44z" />
<glyph unicode="&#xab;" horiz-adv-x="537" d="M46 250l111 195h121l-103 -195l106 -198h-121zM265 250l111 195h121l-103 -195l105 -198h-120z" />
<glyph unicode="&#xac;" horiz-adv-x="500" d="M33 148v118h433v-266h-127v148h-306z" />
<glyph unicode="&#xad;" horiz-adv-x="244" d="M0 197v107h244v-107h-244z" />
<glyph unicode="&#xae;" horiz-adv-x="789" d="M49 333q0 146 102 247.5t250 101.5q139 0 239.5 -103t100.5 -245q0 -145 -101 -247t-244 -102t-245 102.5t-102 245.5zM117 333q0 -118 82 -202.5t197 -84.5q114 0 195.5 84.5t81.5 202.5t-80.5 203t-192.5 85q-119 0 -201 -83.5t-82 -204.5zM260 147v382h136 q75 0 108 -22q41 -28 41 -81q0 -34 -18.5 -57.5t-51.5 -31.5q14 -10 20.5 -19.5t17.5 -33.5l60 -137h-100l-45 108q-12 29 -24 38t-38 9h-15v-155h-91zM350 369h32q68 0 68 49q0 43 -61 43h-39v-92z" />
<glyph unicode="&#xaf;" horiz-adv-x="500" d="M95 609v68h311v-68h-311z" />
<glyph unicode="&#xb0;" horiz-adv-x="377" d="M35 584q0 61 45.5 105t108.5 44q64 0 108.5 -44t44.5 -107t-45 -107.5t-108 -44.5q-65 0 -109.5 45t-44.5 109zM111 583q0 -33 23 -56t55 -23t54.5 23t22.5 55t-23 54.5t-55 22.5q-31 0 -54 -22.5t-23 -53.5z" />
<glyph unicode="&#xb1;" d="M35 73v87h467v-87h-467zM35 376v87h187v170h92v-170h188v-87h-188v-169h-92v169h-187z" />
<glyph unicode="&#xb2;" horiz-adv-x="247" d="M21 400v52q123 102 123 143q0 15 -11 24t-29 9q-32 0 -72 -26l-6 58q49 21 93 21t70 -22t26 -59q0 -62 -103 -148h111v-52h-202z" />
<glyph unicode="&#xb3;" horiz-adv-x="247" d="M21 407l4 56q36 -16 69 -16q55 0 55 35q0 34 -65 34h-26v53q11 -1 23 -1q67 0 67 34q0 28 -46 28q-35 0 -69 -17l-4 55q48 13 82 13q50 0 78 -19.5t28 -54.5q0 -42 -42 -62q44 -18 44 -68q0 -37 -32 -59t-88 -22q-39 0 -78 11z" />
<glyph unicode="&#xb4;" horiz-adv-x="500" d="M191 579l80 136h132l-136 -136h-76z" />
<glyph unicode="&#xb5;" horiz-adv-x="500" d="M26 -173v653h127v-255q0 -47 6.5 -70.5t25.5 -42.5q28 -28 67 -28q42 0 68 34t26 111v251h127v-480h-127v58q-33 -68 -97 -68q-59 0 -96 61v-224h-127z" />
<glyph unicode="&#xb6;" d="M20 470q0 117 70 166q45 31 129 31h277v-97h-40v-773h-100v773h-77v-773h-100v484h-11q-66 0 -107 52.5t-41 136.5z" />
<glyph unicode="&#xb7;" horiz-adv-x="267" d="M65 185v131h136v-131h-136z" />
<glyph unicode="&#xb8;" horiz-adv-x="500" d="M141 -183l19 42q37 -19 67 -19q24 0 38 9.5t14 26.5q0 15 -12 24t-32 9q-14 0 -35 -5l-20 22l46 74h51l-36 -55q23 4 38 4q35 0 57 -17t22 -45q0 -40 -34.5 -66t-86.5 -26q-44 0 -96 22z" />
<glyph unicode="&#xb9;" horiz-adv-x="247" d="M26 610l91 66h57v-276h-67v203l-45 -35z" />
<glyph unicode="&#xba;" horiz-adv-x="457" d="M62 524q0 71 46 114.5t120 43.5q76 0 121.5 -44.5t45.5 -117.5q0 -69 -46.5 -112t-120.5 -43t-120 44t-46 115zM72 276v57h313v-57h-313zM155 524q0 -42 20.5 -67.5t53.5 -25.5q32 0 52.5 25t20.5 65q0 43 -20 69t-54 26q-32 0 -52.5 -25.5t-20.5 -66.5z" />
<glyph unicode="&#xbb;" horiz-adv-x="537" d="M38 52l104 198l-103 195h122l111 -195l-114 -198h-120zM256 52l105 198l-103 195h121l112 -195l-114 -198h-121z" />
<glyph unicode="&#xbc;" horiz-adv-x="892" d="M39 574l130 95h80v-402h-93v302l-67 -54zM220 -31l379 729h72l-379 -729h-72zM551 79v73l158 251h115v-254h54v-70h-54v-79h-93v79h-180zM641 149h92l1 158z" />
<glyph unicode="&#xbd;" horiz-adv-x="892" d="M39 574l130 95h80v-402h-93v302l-67 -54zM220 -31l379 729h72l-379 -729h-72zM566 0v73q180 152 180 211q0 24 -16.5 38t-44.5 14q-47 0 -103 -37l-8 81q72 29 133 29q63 0 100.5 -31.5t37.5 -84.5q0 -57 -67 -135q-38 -45 -86 -87l165 1v-72h-291z" />
<glyph unicode="&#xbe;" horiz-adv-x="892" d="M30 275l6 79q52 -23 99 -23q39 0 61 14.5t22 39.5q0 53 -99 53q-19 0 -35 -1v74q15 -1 31 -1q101 0 101 52q0 43 -70 43q-50 0 -98 -23l-6 75q64 19 117 19q73 0 113 -28t40 -79q0 -64 -64 -92q68 -26 68 -99q0 -55 -46.5 -86.5t-127.5 -31.5q-57 0 -112 15zM221 -31 l379 729h72l-379 -729h-72zM551 79v73l158 251h115v-254h54v-70h-54v-79h-93v79h-180zM641 149h92l1 158z" />
<glyph unicode="&#xbf;" horiz-adv-x="508" d="M27 -11q0 42 18 75t76 98q43 46 54.5 71t13.5 72h116q-1 -69 -14.5 -102t-61.5 -85q-61 -65 -61 -114q0 -37 29.5 -59t79.5 -22q63 0 146 37l10 -110q-97 -32 -192 -32q-98 0 -156 46.5t-58 124.5zM181 372v123h132v-123h-132z" />
<glyph unicode="&#xc0;" horiz-adv-x="696" d="M9 0l260 667h150l267 -667h-147l-58 152h-276l-57 -152h-139zM183 865h130l80 -130h-83zM246 261h194l-86 236q-7 19 -13 44l-5 -20q-4 -17 -10 -35z" />
<glyph unicode="&#xc1;" horiz-adv-x="696" d="M9 0l260 667h150l267 -667h-147l-58 152h-276l-57 -152h-139zM246 261h194l-86 236q-7 19 -13 44l-5 -20q-4 -17 -10 -35zM303 735l80 130h130l-127 -130h-83z" />
<glyph unicode="&#xc2;" horiz-adv-x="696" d="M9 0l260 667h150l267 -667h-147l-58 152h-276l-57 -152h-139zM186 735l105 130h112l105 -130h-100l-61 76l-61 -76h-100zM246 261h194l-86 236q-7 19 -13 44l-5 -20q-4 -17 -10 -35z" />
<glyph unicode="&#xc3;" horiz-adv-x="696" d="M9 0l260 667h150l267 -667h-147l-58 152h-276l-57 -152h-139zM181 742q10 46 26 69q34 46 86 46q30 0 84 -24q34 -16 50 -16q17 0 27 9.5t17 31.5h56q-5 -53 -33 -83t-73 -30q-17 0 -28 3.5t-55 21.5q-36 15 -52 15q-36 0 -49 -43h-56zM246 261h194l-86 236q-7 19 -13 44 l-5 -20q-4 -17 -10 -35z" />
<glyph unicode="&#xc4;" horiz-adv-x="696" d="M9 0l260 667h150l267 -667h-147l-58 152h-276l-57 -152h-139zM183 741v115h115v-115h-115zM246 261h194l-86 236q-7 19 -13 44l-5 -20q-4 -17 -10 -35zM391 741v115h115v-115h-115z" />
<glyph unicode="&#xc5;" horiz-adv-x="696" d="M9 0l260 667h150l267 -667h-147l-58 152h-276l-57 -152h-139zM242 807q0 42 30.5 72t73.5 30q41 0 71 -30.5t30 -72.5q0 -43 -30 -73t-72 -30q-43 0 -73 30.5t-30 73.5zM246 261h194l-86 236q-7 19 -13 44l-5 -20q-4 -17 -10 -35zM302 806q0 -17 12.5 -30t30.5 -13 q17 0 29.5 12.5t12.5 30.5q0 17 -12.5 30t-29.5 13q-18 0 -30.5 -12.5t-12.5 -30.5z" />
<glyph unicode="&#xc6;" horiz-adv-x="900" d="M-5 0l365 667h475v-109h-260l15 -164h225v-109h-216l17 -176h226v-109h-352l-12 152h-257l-82 -152h-144zM278 261h190l-23 281v11l-1 9v11q-1 -3 -4 -7l-1 -3q-4 -8 -11 -21z" />
<glyph unicode="&#xc7;" horiz-adv-x="589" d="M49 335q0 156 94 246q97 91 256 91q77 0 165 -29l-11 -114q-66 36 -141 36q-101 0 -160.5 -60.5t-59.5 -164.5q0 -103 62.5 -168t161.5 -65q71 0 146 28l5 -118q-73 -21 -168 -22l-35 -55q21 5 40 5q38 0 60 -18t22 -49q0 -41 -34.5 -67.5t-89.5 -26.5q-46 0 -98 22 l19 46q35 -19 67 -19q52 0 52 38q0 33 -47 33q-15 0 -32 -5l-20 22l48 77q-144 15 -223 103t-79 234z" />
<glyph unicode="&#xc8;" horiz-adv-x="537" d="M80 0v667h395v-109h-260v-162h238v-109h-238v-178h264v-109h-399zM122 865h130l80 -130h-83z" />
<glyph unicode="&#xc9;" horiz-adv-x="537" d="M80 0v667h395v-109h-260v-162h238v-109h-238v-178h264v-109h-399zM231 735l80 130h130l-127 -130h-83z" />
<glyph unicode="&#xca;" horiz-adv-x="537" d="M80 0v667h395v-109h-260v-162h238v-109h-238v-178h264v-109h-399zM120 735l105 130h112l105 -130h-100l-61 76l-61 -76h-100z" />
<glyph unicode="&#xcb;" horiz-adv-x="537" d="M80 0v667h395v-109h-260v-162h238v-109h-238v-178h264v-109h-399zM119 741v115h115v-115h-115zM327 741v115h115v-115h-115z" />
<glyph unicode="&#xcc;" horiz-adv-x="308" d="M-8 865h130l80 -130h-83zM86 0v667h135v-667h-135z" />
<glyph unicode="&#xcd;" horiz-adv-x="308" d="M87 0v667h135v-667h-135zM113 735l80 130h130l-127 -130h-83z" />
<glyph unicode="&#xce;" horiz-adv-x="308" d="M6 735l95 130h112l95 -130h-96l-55 80l-54 -80h-97zM86 0v667h135v-667h-135z" />
<glyph unicode="&#xcf;" horiz-adv-x="308" d="M23 741v115h105v-115h-105zM87 0v667h135v-667h-135zM181 741v115h105v-115h-105z" />
<glyph unicode="&#xd0;" horiz-adv-x="697" d="M13 297v93h67v277h152q205 0 296 -64q120 -85 120 -268q0 -189 -120 -274q-84 -61 -255 -61h-193v297h-67zM215 102h26q72 0 110.5 10t71.5 36q81 66 81 183q0 136 -98 199q-29 18 -68 25t-123 8v-173h140v-93h-140v-195z" />
<glyph unicode="&#xd1;" horiz-adv-x="709" d="M80 0v667h159l223 -404q20 -36 40 -91q0 -2 4 -11.5t6 -15.5q-1 19 -4 36q-7 59 -7 128v358h128v-667h-163l-218 403q-30 56 -55 118q15 -108 15 -172v-349h-128zM198 742q10 46 26 69q34 46 86 46q30 0 84 -24q34 -16 50 -16q17 0 27 9.5t17 31.5h56q-5 -53 -33 -83 t-73 -30q-17 0 -28 3.5t-55 21.5q-36 15 -52 15q-36 0 -49 -43h-56z" />
<glyph unicode="&#xd2;" horiz-adv-x="749" d="M49 332q0 159 82 252q41 46 105.5 72t137.5 26q152 0 239.5 -94t87.5 -258q0 -70 -21 -134t-59 -108q-86 -103 -247 -103q-150 0 -237.5 93.5t-87.5 253.5zM192 333q0 -109 50.5 -177t132.5 -68q88 0 137 75q46 71 46 167q0 111 -51 180t-133 69q-81 0 -131.5 -68.5 t-50.5 -177.5zM220 865h130l80 -130h-83z" />
<glyph unicode="&#xd3;" horiz-adv-x="749" d="M49 332q0 159 82 252q41 46 105.5 72t137.5 26q152 0 239.5 -94t87.5 -258q0 -70 -21 -134t-59 -108q-86 -103 -247 -103q-150 0 -237.5 93.5t-87.5 253.5zM192 333q0 -109 50.5 -177t132.5 -68q88 0 137 75q46 71 46 167q0 111 -51 180t-133 69q-81 0 -131.5 -68.5 t-50.5 -177.5zM330 735l80 130h130l-127 -130h-83z" />
<glyph unicode="&#xd4;" horiz-adv-x="749" d="M49 332q0 159 82 252q41 46 105.5 72t137.5 26q152 0 239.5 -94t87.5 -258q0 -70 -21 -134t-59 -108q-86 -103 -247 -103q-150 0 -237.5 93.5t-87.5 253.5zM192 333q0 -109 50.5 -177t132.5 -68q88 0 137 75q46 71 46 167q0 111 -51 180t-133 69q-81 0 -131.5 -68.5 t-50.5 -177.5zM217 735l105 130h112l105 -130h-100l-61 76l-61 -76h-100z" />
<glyph unicode="&#xd5;" horiz-adv-x="749" d="M49 332q0 159 82 252q41 46 105.5 72t137.5 26q152 0 239.5 -94t87.5 -258q0 -70 -21 -134t-59 -108q-86 -103 -247 -103q-150 0 -237.5 93.5t-87.5 253.5zM192 333q0 -109 50.5 -177t132.5 -68q88 0 137 75q46 71 46 167q0 111 -51 180t-133 69q-81 0 -131.5 -68.5 t-50.5 -177.5zM212 742q10 46 26 69q34 46 86 46q30 0 84 -24q34 -16 50 -16q17 0 27 9.5t17 31.5h56q-5 -53 -33 -83t-73 -30q-17 0 -28 3.5t-55 21.5q-36 15 -52 15q-36 0 -49 -43h-56z" />
<glyph unicode="&#xd6;" horiz-adv-x="749" d="M49 332q0 159 82 252q41 46 105.5 72t137.5 26q152 0 239.5 -94t87.5 -258q0 -70 -21 -134t-59 -108q-86 -103 -247 -103q-150 0 -237.5 93.5t-87.5 253.5zM192 333q0 -109 50.5 -177t132.5 -68q88 0 137 75q46 71 46 167q0 111 -51 180t-133 69q-81 0 -131.5 -68.5 t-50.5 -177.5zM213 741v115h115v-115h-115zM421 741v115h115v-115h-115z" />
<glyph unicode="&#xd7;" d="M63 203l144 144l-144 144l61 61l144 -144l144 144l61 -61l-144 -144l144 -144l-61 -61l-144 143l-144 -143z" />
<glyph unicode="&#xd8;" horiz-adv-x="749" d="M49 334q0 75 21.5 141t60.5 109q41 46 104.5 72t135.5 26q60 0 115.5 -16.5t89.5 -44.5l61 68l60 -53l-64 -72q68 -88 68 -232q0 -158 -88 -252.5t-236 -94.5q-127 0 -204 60l-58 -66l-62 51l63 72q-67 92 -67 232zM192 335q0 -53 20 -128l274 323q-36 49 -113 49 q-80 0 -130.5 -68t-50.5 -176zM260 135q44 -47 117 -47q80 0 130.5 68.5t50.5 178.5q0 60 -24 123z" />
<glyph unicode="&#xd9;" horiz-adv-x="705" d="M80 264v403h135v-391q0 -55 7 -84t26 -53q38 -47 108 -47q82 0 118 67q12 23 16 47t4 75v386h131v-405q0 -142 -67.5 -209.5t-209.5 -67.5t-211 79q-57 64 -57 200zM198 865h130l80 -130h-83z" />
<glyph unicode="&#xda;" horiz-adv-x="705" d="M80 264v403h135v-391q0 -55 7 -84t26 -53q38 -47 108 -47q82 0 118 67q12 23 16 47t4 75v386h131v-405q0 -142 -67.5 -209.5t-209.5 -67.5t-211 79q-57 64 -57 200zM304 735l80 130h130l-127 -130h-83z" />
<glyph unicode="&#xdb;" horiz-adv-x="705" d="M80 264v403h135v-391q0 -55 7 -84t26 -53q38 -47 108 -47q82 0 118 67q12 23 16 47t4 75v386h131v-405q0 -142 -67.5 -209.5t-209.5 -67.5t-211 79q-57 64 -57 200zM195 735l105 130h112l105 -130h-100l-61 76l-61 -76h-100z" />
<glyph unicode="&#xdc;" horiz-adv-x="705" d="M80 264v403h135v-391q0 -55 7 -84t26 -53q38 -47 108 -47q82 0 118 67q12 23 16 47t4 75v386h131v-405q0 -142 -67.5 -209.5t-209.5 -67.5t-211 79q-57 64 -57 200zM194 741v115h115v-115h-115zM402 741v115h115v-115h-115z" />
<glyph unicode="&#xdd;" horiz-adv-x="638" d="M9 667h157l143 -248q9 -17 15 -32q3 9 15 30l146 250h144l-241 -397v-270h-135v267zM271 735l80 130h130l-127 -130h-83z" />
<glyph unicode="&#xde;" horiz-adv-x="548" d="M80 0v667h135v-94h48q124 0 185 -43q81 -56 81 -162q0 -50 -21 -94t-59 -72q-59 -44 -173 -44q-24 0 -61 1v-159h-135zM213 263q67 0 89 4q40 6 63 32.5t23 66.5q0 80 -75 99q-23 6 -100 6v-208z" />
<glyph unicode="&#xdf;" horiz-adv-x="584" d="M64 0v465q0 130 57 191q66 71 184 71q94 0 151.5 -50.5t57.5 -133.5q0 -62 -33 -104t-92 -55v-3q52 -10 85 -31q72 -48 72 -151q0 -94 -60 -150.5t-159 -56.5q-31 0 -82 10l2 101q33 -4 55 -4q52 0 83 31.5t31 84.5q0 75 -59 104q-25 13 -89 13v95h18q46 0 72.5 28 t26.5 76q0 47 -23.5 74t-63.5 27q-62 0 -89 -61q-17 -41 -17 -133v-438h-128z" />
<glyph unicode="&#xe0;" horiz-adv-x="538" d="M37 147q0 160 248 160q25 0 72 -4v5q0 105 -110 105q-83 0 -153 -54l-4 110q81 35 171 35q130 0 182 -72q18 -26 24.5 -63t6.5 -117v-72q0 -78 5 -180h-114l-2 73q-49 -81 -158 -81q-76 0 -122 42t-46 113zM110 715h132l80 -136h-76zM164 143q0 -29 21.5 -46.5 t55.5 -17.5t62 18.5t43 50.5q13 29 13 77q-24 2 -35 2q-160 0 -160 -84z" />
<glyph unicode="&#xe1;" horiz-adv-x="538" d="M37 147q0 160 248 160q25 0 72 -4v5q0 105 -110 105q-83 0 -153 -54l-4 110q81 35 171 35q130 0 182 -72q18 -26 24.5 -63t6.5 -117v-72q0 -78 5 -180h-114l-2 73q-49 -81 -158 -81q-76 0 -122 42t-46 113zM164 143q0 -29 21.5 -46.5t55.5 -17.5t62 18.5t43 50.5 q13 29 13 77q-24 2 -35 2q-160 0 -160 -84zM227 579l80 136h132l-136 -136h-76z" />
<glyph unicode="&#xe2;" horiz-adv-x="538" d="M37 147q0 160 248 160q25 0 72 -4v5q0 105 -110 105q-83 0 -153 -54l-4 110q81 35 171 35q130 0 182 -72q18 -26 24.5 -63t6.5 -117v-72q0 -78 5 -180h-114l-2 73q-49 -81 -158 -81q-76 0 -122 42t-46 113zM123 579l105 136h99l105 -136h-90l-64 83l-65 -83h-90zM164 143 q0 -29 21.5 -46.5t55.5 -17.5t62 18.5t43 50.5q13 29 13 77q-24 2 -35 2q-160 0 -160 -84z" />
<glyph unicode="&#xe3;" horiz-adv-x="538" d="M37 147q0 160 248 160q25 0 72 -4v5q0 105 -110 105q-83 0 -153 -54l-4 110q81 35 171 35q130 0 182 -72q18 -26 24.5 -63t6.5 -117v-72q0 -78 5 -180h-114l-2 73q-49 -81 -158 -81q-76 0 -122 42t-46 113zM124 591q6 42 18 62q27 50 78 50q23 0 71 -20q45 -18 60 -18 q13 0 24.5 12t14.5 29h49q-3 -47 -32 -79t-69 -32q-24 0 -63 18q-42 19 -63 19q-30 0 -40 -41h-48zM164 143q0 -29 21.5 -46.5t55.5 -17.5t62 18.5t43 50.5q13 29 13 77q-24 2 -35 2q-160 0 -160 -84z" />
<glyph unicode="&#xe4;" horiz-adv-x="538" d="M37 147q0 160 248 160q25 0 72 -4v5q0 105 -110 105q-83 0 -153 -54l-4 110q81 35 171 35q130 0 182 -72q18 -26 24.5 -63t6.5 -117v-72q0 -78 5 -180h-114l-2 73q-49 -81 -158 -81q-76 0 -122 42t-46 113zM129 591v112h109v-112h-109zM164 143q0 -29 21.5 -46.5 t55.5 -17.5t62 18.5t43 50.5q13 29 13 77q-24 2 -35 2q-160 0 -160 -84zM318 591v112h108v-112h-108z" />
<glyph unicode="&#xe5;" horiz-adv-x="538" d="M37 147q0 160 248 160q25 0 72 -4v5q0 105 -110 105q-83 0 -153 -54l-4 110q81 35 171 35q130 0 182 -72q18 -26 24.5 -63t6.5 -117v-72q0 -78 5 -180h-114l-2 73q-49 -81 -158 -81q-76 0 -122 42t-46 113zM164 143q0 -29 21.5 -46.5t55.5 -17.5t62 18.5t43 50.5 q13 29 13 77q-24 2 -35 2q-160 0 -160 -84zM177 655q0 41 29.5 69.5t71.5 28.5q39 0 68 -29.5t29 -69.5t-29.5 -69.5t-69.5 -29.5q-41 0 -70 29.5t-29 70.5zM236 654q0 -17 11.5 -29t28.5 -12t29 11.5t12 28.5t-12 29t-28 12q-17 0 -29 -11.5t-12 -28.5z" />
<glyph unicode="&#xe6;" horiz-adv-x="856" d="M36 147q0 155 245 155q29 0 83 -3q-3 110 -121 110q-40 0 -71.5 -9.5t-79.5 -36.5l-4 100q87 40 177 40q132 0 167 -80q52 80 166 80t167 -71.5t54 -225.5h-331q5 -53 32 -80q39 -39 109 -39q82 0 145 43l4 -105q-79 -33 -167 -33q-73 0 -125 24.5t-72 68.5 q-19 -37 -50 -57q-56 -36 -137 -36q-86 0 -138.5 42.5t-52.5 112.5zM169 144q0 -29 22.5 -48.5t55.5 -19.5q29 0 57.5 16.5t42.5 41.5q19 34 19 87q-14 0 -27.5 0.5t-20.5 1t-12 0.5q-64 0 -100.5 -21t-36.5 -58zM487 295h202q-2 53 -27.5 86.5t-69.5 33.5q-56 0 -85 -53 q-13 -24 -20 -67z" />
<glyph unicode="&#xe7;" horiz-adv-x="431" d="M37 250q0 112 64 176q73 73 188 73q44 0 107 -16l-10 -103q-43 16 -76 16q-63 0 -101.5 -40.5t-38.5 -107.5q0 -65 39 -105t103 -40q43 0 88 20l7 -108q-65 -19 -114 -19h-13l-34 -51q23 4 39 4q35 0 57 -17t22 -45q0 -40 -34.5 -66t-86.5 -26q-45 0 -96 22l18 42 q37 -19 68 -19q24 0 38 9.5t14 26.5q0 15 -12.5 24t-32.5 9q-14 0 -34 -5l-20 22l47 75q-196 45 -196 249z" />
<glyph unicode="&#xe8;" horiz-adv-x="535" d="M36 249q0 119 65 189t174 70q104 0 163.5 -65.5t59.5 -179.5q0 -25 -3 -56h-333q5 -58 44 -91.5t102 -33.5q70 0 155 51l2 -111q-78 -35 -172 -35q-122 0 -189.5 69t-67.5 193zM118 715h132l80 -136h-76zM160 296h216q-1 58 -28.5 90t-75.5 32q-46 0 -76 -32.5t-36 -89.5 z" />
<glyph unicode="&#xe9;" horiz-adv-x="535" d="M36 249q0 119 65 189t174 70q104 0 163.5 -65.5t59.5 -179.5q0 -25 -3 -56h-333q5 -58 44 -91.5t102 -33.5q70 0 155 51l2 -111q-78 -35 -172 -35q-122 0 -189.5 69t-67.5 193zM160 296h216q-1 58 -28.5 90t-75.5 32q-46 0 -76 -32.5t-36 -89.5zM238 579l80 136h132 l-136 -136h-76z" />
<glyph unicode="&#xea;" horiz-adv-x="535" d="M36 249q0 119 65 189t174 70q104 0 163.5 -65.5t59.5 -179.5q0 -25 -3 -56h-333q5 -58 44 -91.5t102 -33.5q70 0 155 51l2 -111q-78 -35 -172 -35q-122 0 -189.5 69t-67.5 193zM129 579l105 136h99l105 -136h-90l-64 83l-65 -83h-90zM160 296h216q-1 58 -28.5 90 t-75.5 32q-46 0 -76 -32.5t-36 -89.5z" />
<glyph unicode="&#xeb;" horiz-adv-x="535" d="M36 249q0 119 65 189t174 70q104 0 163.5 -65.5t59.5 -179.5q0 -25 -3 -56h-333q5 -58 44 -91.5t102 -33.5q70 0 155 51l2 -111q-78 -35 -172 -35q-122 0 -189.5 69t-67.5 193zM135 591v112h109v-112h-109zM160 296h216q-1 58 -28.5 90t-75.5 32q-46 0 -76 -32.5 t-36 -89.5zM324 591v112h108v-112h-108z" />
<glyph unicode="&#xec;" horiz-adv-x="258" d="M-28 715h129l73 -136h-76zM65 0v495h128v-495h-128z" />
<glyph unicode="&#xed;" horiz-adv-x="258" d="M65 0v495h128v-495h-128zM91 579l73 136h129l-126 -136h-76z" />
<glyph unicode="&#xee;" horiz-adv-x="258" d="M-12 579l95 136h99l95 -136h-87l-57 83l-58 -83h-87zM65 0v495h128v-495h-128z" />
<glyph unicode="&#xef;" horiz-adv-x="258" d="M3 591v112h100v-112h-100zM66 0v495h128v-495h-128zM156 591v112h100v-112h-100z" />
<glyph unicode="&#xf0;" horiz-adv-x="587" d="M37 250q0 111 67.5 183.5t170.5 72.5q38 0 62 -8t55 -33q-26 80 -95 140l-105 -64l-40 55l77 46q-30 12 -103 24l22 62q73 -7 162 -37l112 66l42 -53l-90 -53q80 -67 128.5 -173.5t48.5 -216.5q0 -134 -69 -203q-71 -71 -189 -71q-116 0 -186 72t-70 191zM171 251 q0 -67 29 -117q30 -51 95 -51t96 55q27 48 27 108q0 75 -34.5 121.5t-89.5 46.5q-54 0 -88.5 -46t-34.5 -117z" />
<glyph unicode="&#xf1;" horiz-adv-x="585" d="M65 495h120l4 -79q25 35 44 50q48 37 124 37q93 0 137 -64q31 -47 31 -160v-279h-128v249q0 78 -20.5 112.5t-67.5 34.5q-64 0 -94 -60q-17 -33 -17 -101v-235h-128v315q0 87 -5 180zM144 591q6 42 18 62q27 50 78 50q23 0 71 -20q45 -18 60 -18q13 0 24.5 12t14.5 29h49 q-3 -47 -32 -79t-69 -32q-24 0 -63 18q-42 19 -63 19q-30 0 -40 -41h-48z" />
<glyph unicode="&#xf2;" horiz-adv-x="587" d="M37 249q0 116 71 187.5t186 71.5q116 0 186.5 -72.5t70.5 -193.5q0 -114 -71.5 -184.5t-186.5 -70.5t-185.5 72t-70.5 190zM135 715h132l80 -136h-76zM170 249q0 -75 34 -121t90 -46q55 0 89.5 45.5t34.5 116.5q0 76 -34 122.5t-90 46.5q-55 0 -89.5 -46t-34.5 -118z" />
<glyph unicode="&#xf3;" horiz-adv-x="587" d="M37 249q0 116 71 187.5t186 71.5q116 0 186.5 -72.5t70.5 -193.5q0 -114 -71.5 -184.5t-186.5 -70.5t-185.5 72t-70.5 190zM170 249q0 -75 34 -121t90 -46q55 0 89.5 45.5t34.5 116.5q0 76 -34 122.5t-90 46.5q-55 0 -89.5 -46t-34.5 -118zM251 579l80 136h132l-136 -136 h-76z" />
<glyph unicode="&#xf4;" horiz-adv-x="587" d="M37 249q0 116 71 187.5t186 71.5q116 0 186.5 -72.5t70.5 -193.5q0 -114 -71.5 -184.5t-186.5 -70.5t-185.5 72t-70.5 190zM146 579l105 136h99l105 -136h-90l-64 83l-65 -83h-90zM170 249q0 -75 34 -121t90 -46q55 0 89.5 45.5t34.5 116.5q0 76 -34 122.5t-90 46.5 q-55 0 -89.5 -46t-34.5 -118z" />
<glyph unicode="&#xf5;" horiz-adv-x="587" d="M37 249q0 116 71 187.5t186 71.5q116 0 186.5 -72.5t70.5 -193.5q0 -114 -71.5 -184.5t-186.5 -70.5t-185.5 72t-70.5 190zM147 591q6 42 18 62q27 50 78 50q23 0 71 -20q45 -18 60 -18q13 0 24.5 12t14.5 29h49q-3 -47 -32 -79t-69 -32q-24 0 -63 18q-42 19 -63 19 q-30 0 -40 -41h-48zM170 249q0 -75 34 -121t90 -46q55 0 89.5 45.5t34.5 116.5q0 76 -34 122.5t-90 46.5q-55 0 -89.5 -46t-34.5 -118z" />
<glyph unicode="&#xf6;" horiz-adv-x="587" d="M37 249q0 116 71 187.5t186 71.5q116 0 186.5 -72.5t70.5 -193.5q0 -114 -71.5 -184.5t-186.5 -70.5t-185.5 72t-70.5 190zM149 591v112h109v-112h-109zM170 249q0 -75 34 -121t90 -46q55 0 89.5 45.5t34.5 116.5q0 76 -34 122.5t-90 46.5q-55 0 -89.5 -46t-34.5 -118z M338 591v112h108v-112h-108z" />
<glyph unicode="&#xf7;" d="M35 303v87h467v-87h-467zM212 122v107h112v-107h-112zM212 465v107h112v-107h-112z" />
<glyph unicode="&#xf8;" horiz-adv-x="587" d="M35 21l55 59q-53 70 -53 169q0 117 71 188t187 71q82 0 151 -44l52 56l55 -47l-55 -58q53 -69 53 -170q0 -116 -70.5 -187t-186.5 -71q-88 0 -151 44l-53 -57zM170 249q0 -35 12 -76l185 213q-34 27 -72 27q-55 0 -90 -45.5t-35 -118.5zM221 110q35 -28 72 -28 q57 0 91 45.5t34 121.5q0 33 -12 73z" />
<glyph unicode="&#xf9;" horiz-adv-x="581" d="M61 216v279h128v-238q0 -80 14 -112q20 -46 74 -46q105 0 105 164v232h128v-302q0 -91 6 -193h-120l-4 76q-53 -84 -163 -84q-97 0 -139 70q-29 51 -29 154zM125 715h132l80 -136h-76z" />
<glyph unicode="&#xfa;" horiz-adv-x="581" d="M61 216v279h128v-238q0 -80 14 -112q20 -46 74 -46q105 0 105 164v232h128v-302q0 -91 6 -193h-120l-4 76q-53 -84 -163 -84q-97 0 -139 70q-29 51 -29 154zM245 579l80 136h132l-136 -136h-76z" />
<glyph unicode="&#xfb;" horiz-adv-x="581" d="M61 216v279h128v-238q0 -80 14 -112q20 -46 74 -46q105 0 105 164v232h128v-302q0 -91 6 -193h-120l-4 76q-53 -84 -163 -84q-97 0 -139 70q-29 51 -29 154zM134 579l105 136h99l105 -136h-90l-64 83l-65 -83h-90z" />
<glyph unicode="&#xfc;" horiz-adv-x="581" d="M61 216v279h128v-238q0 -80 14 -112q20 -46 74 -46q105 0 105 164v232h128v-302q0 -91 6 -193h-120l-4 76q-53 -84 -163 -84q-97 0 -139 70q-29 51 -29 154zM140 591v112h109v-112h-109zM329 591v112h108v-112h-108z" />
<glyph unicode="&#xfd;" horiz-adv-x="534" d="M9 495h142l102 -302q17 -54 21 -66q21 72 24 82l96 286h130l-197 -529q-36 -94 -72 -129q-49 -46 -131 -46q-35 0 -71 10l-11 3l9 97q29 -11 52 -11q38 0 60 18.5t41 66.5zM224 579l80 136h132l-136 -136h-76z" />
<glyph unicode="&#xfe;" horiz-adv-x="590" d="M70 -203v923h129v-211q0 -44 -8 -92q61 87 160 87q93 0 148 -68t55 -184q0 -121 -55 -190.5t-151 -69.5q-105 0 -150 78q1 -30 1 -76v-197h-129zM199 244q0 -70 30 -110.5t82 -40.5q49 0 79.5 42.5t30.5 109.5q0 73 -28 113t-79 40q-53 0 -84 -41.5t-31 -112.5z" />
<glyph unicode="&#xff;" horiz-adv-x="534" d="M9 495h142l102 -302q17 -54 21 -66q21 72 24 82l96 286h130l-197 -529q-36 -94 -72 -129q-49 -46 -131 -46q-35 0 -71 10l-11 3l9 97q29 -11 52 -11q38 0 60 18.5t41 66.5zM118 591v112h109v-112h-109zM307 591v112h108v-112h-108z" />
<glyph unicode="&#x152;" horiz-adv-x="917" d="M49 336q0 67 17 123.5t50.5 99t81.5 68.5q80 43 219 43q27 0 123 -1.5t128 -1.5h186v-109h-249v-161h228v-109h-228v-179h254v-109h-298l-139 -1q-98 -1 -161.5 18.5t-113.5 63.5q-98 87 -98 255zM188 335q0 -68 29 -121.5t81 -81.5q51 -28 133 -28q22 0 39 2v453 q-32 4 -66 4q-95 0 -155.5 -64t-60.5 -164z" />
<glyph unicode="&#x153;" horiz-adv-x="914" d="M37 248q0 118 71 189t189 71q63 0 104 -19t74 -65q68 84 176 84q144 0 196 -116q30 -65 31 -185h-332q4 -59 40.5 -92t98.5 -33q74 0 146 49l4 -107q-86 -37 -165 -37q-132 0 -189 83q-34 -44 -77.5 -63.5t-106.5 -19.5q-119 0 -189.5 71t-70.5 190zM170 251 q0 -76 33.5 -122.5t89.5 -46.5t90.5 45t34.5 118q0 75 -34 121.5t-89 46.5t-90 -45.5t-35 -116.5zM546 296h200q-4 47 -16 70q-26 51 -81 51q-45 0 -72.5 -32.5t-30.5 -88.5z" />
<glyph unicode="&#x178;" horiz-adv-x="638" d="M9 667h157l143 -248q9 -17 15 -32q3 9 15 30l146 250h144l-241 -397v-270h-135v267zM157 741v115h115v-115h-115zM365 741v115h115v-115h-115z" />
<glyph unicode="&#x2c6;" horiz-adv-x="500" d="M98 579l105 136h99l105 -136h-90l-64 83l-65 -83h-90z" />
<glyph unicode="&#x2dc;" horiz-adv-x="500" d="M93 591q6 42 18 62q27 50 78 50q23 0 71 -20q45 -18 60 -18q13 0 24.5 12t14.5 29h49q-3 -47 -32 -79t-69 -32q-24 0 -63 18q-42 19 -63 19q-30 0 -40 -41h-48z" />
<glyph unicode="&#x2000;" horiz-adv-x="454" />
<glyph unicode="&#x2001;" horiz-adv-x="909" />
<glyph unicode="&#x2002;" horiz-adv-x="454" />
<glyph unicode="&#x2003;" horiz-adv-x="909" />
<glyph unicode="&#x2004;" horiz-adv-x="303" />
<glyph unicode="&#x2005;" horiz-adv-x="227" />
<glyph unicode="&#x2006;" horiz-adv-x="151" />
<glyph unicode="&#x2007;" horiz-adv-x="151" />
<glyph unicode="&#x2008;" horiz-adv-x="113" />
<glyph unicode="&#x2009;" horiz-adv-x="181" />
<glyph unicode="&#x200a;" horiz-adv-x="50" />
<glyph unicode="&#x2010;" horiz-adv-x="244" d="M0 197v107h244v-107h-244z" />
<glyph unicode="&#x2011;" horiz-adv-x="244" d="M0 197v107h244v-107h-244z" />
<glyph unicode="&#x2012;" horiz-adv-x="244" d="M0 197v107h244v-107h-244z" />
<glyph unicode="&#x2013;" d="M35 207v87h465v-87h-465z" />
<glyph unicode="&#x2014;" horiz-adv-x="732" d="M0 207v87h732v-87h-732z" />
<glyph unicode="&#x2018;" horiz-adv-x="267" d="M33 481l85 239h111l-59 -239h-137z" />
<glyph unicode="&#x2019;" horiz-adv-x="267" d="M38 481l60 239h136l-84 -239h-112z" />
<glyph unicode="&#x201a;" horiz-adv-x="267" d="M38 -107l60 239h136l-84 -239h-112z" />
<glyph unicode="&#x201c;" horiz-adv-x="463" d="M33 481l85 239h111l-59 -239h-137zM229 481l85 239h112l-60 -239h-137z" />
<glyph unicode="&#x201d;" horiz-adv-x="463" d="M38 481l60 239h136l-84 -239h-112zM234 481l60 239h137l-85 -239h-112z" />
<glyph unicode="&#x201e;" horiz-adv-x="463" d="M33 -108l60 240h136l-84 -240h-112zM229 -108l60 240h137l-85 -240h-112z" />
<glyph unicode="&#x2022;" horiz-adv-x="667" d="M196 338q0 58 40.5 98.5t99.5 40.5q56 0 96.5 -41t40.5 -98t-40.5 -97.5t-97.5 -40.5q-58 0 -98.5 40.5t-40.5 97.5z" />
<glyph unicode="&#x2026;" horiz-adv-x="800" d="M65 0v131h136v-131h-136zM332 0v131h136v-131h-136zM598 0v131h136v-131h-136z" />
<glyph unicode="&#x202f;" horiz-adv-x="181" />
<glyph unicode="&#x2039;" horiz-adv-x="319" d="M46 250l111 195h121l-103 -195l106 -198h-121z" />
<glyph unicode="&#x203a;" horiz-adv-x="319" d="M38 52l105 198l-103 195h121l112 -195l-114 -198h-121z" />
<glyph unicode="&#x205f;" horiz-adv-x="227" />
<glyph unicode="&#x20ac;" horiz-adv-x="643" d="M35 251l22 69h49v33h-71l22 69h57q15 72 41 118q39 67 112 104.5t164 37.5q103 0 176 -44l-41 -132q-52 73 -135 73q-63 0 -107 -40t-65 -117h281l-22 -69h-268q-1 -10 -1 -20v-13h258l-22 -69h-227q18 -78 63.5 -120.5t110.5 -42.5q86 0 136 75v-153q-63 -25 -139 -25 q-128 0 -212.5 70.5t-104.5 195.5h-77z" />
<glyph unicode="&#x2122;" horiz-adv-x="871" d="M1 598v71h320v-71h-116v-311h-90v311h-114zM365 287v382h136l73 -198q15 -43 22 -72q6 26 17 56l77 214h138v-382h-90v225q0 48 3 69l-106 -294h-81l-88 237l-18 52q3 -45 3 -61v-228h-86z" />
<glyph unicode="&#xe000;" horiz-adv-x="495" d="M0 0v495h495v-495h-495z" />
</font>
</defs>
</svg>
